<?xml version="1.0" standalone="no"?>
<!DOCTYPE svg PUBLIC "-//W3C//DTD SVG 20010904//EN"
 "http://www.w3.org/TR/2001/REC-SVG-20010904/DTD/svg10.dtd">
<svg version="1.0" xmlns="http://www.w3.org/2000/svg"
 width="512.000000pt" height="512.000000pt" viewBox="0 0 512.000000 512.000000"
 preserveAspectRatio="xMidYMid meet">
<metadata>
Created by potrace 1.14, written by Peter Selinger 2001-2017
</metadata>
<g transform="translate(0.000000,512.000000) scale(0.100000,-0.100000)"
fill="#000000" stroke="none">
<path d="M570 5106 c-278 -78 -407 -376 -275 -637 30 -59 115 -144 174 -173
43 -22 144 -57 159 -55 4 1 17 1 29 0 l21 -1 -19 -55 c-17 -50 -19 -85 -19
-440 l0 -385 -122 -1 c-146 -2 -152 -2 -203 -19 -155 -50 -269 -172 -304 -325
-12 -54 -8 -172 7 -220 50 -160 192 -283 357 -310 6 -1 67 -3 138 -3 l127 -2
0 -239 0 -238 -102 -5 c-113 -6 -168 -23 -233 -71 -95 -71 -151 -193 -141
-307 12 -144 78 -243 201 -301 70 -33 92 -37 203 -38 62 -1 82 -4 82 -15 0 -7
16 -45 35 -83 43 -86 103 -144 193 -186 l67 -32 247 -3 248 -4 -5 -43 c-11
-107 -98 -215 -205 -255 -19 -7 -89 -16 -155 -20 -139 -8 -194 -29 -260 -95
-65 -65 -89 -125 -89 -225 -1 -71 3 -93 24 -134 32 -64 93 -124 155 -156 l50
-25 1664 -3 c1528 -2 1669 -1 1715 14 110 36 179 108 211 218 43 148 -30 307
-170 376 -46 22 -64 24 -220 27 -93 2 -186 8 -207 13 -76 21 -126 122 -99 203
13 39 54 81 94 96 18 7 151 11 360 11 183 0 351 5 375 10 111 26 195 94 246
200 27 57 31 75 31 150 -1 74 -5 94 -32 150 -52 110 -152 189 -261 204 -21 3
-21 6 -24 796 l-3 575 -25 50 c-32 63 -92 123 -156 155 -42 20 -67 25 -169 28
-66 2 -121 5 -121 6 -1 0 -4 73 -6 161 -3 146 -6 164 -28 210 -14 27 -44 69
-68 92 -70 70 -129 90 -272 92 -57 1 -105 3 -106 4 -1 1 -4 16 -7 32 -20 121
-78 201 -185 256 l-47 24 -450 3 c-249 2 -466 7 -487 13 -100 26 -141 167 -72
249 39 46 59 53 179 60 122 8 173 26 236 82 75 68 110 153 105 260 -7 135 -93
241 -235 287 -51 17 -2091 13 -2151 -3z"/>
<path d="M3500 5103 c-128 -45 -211 -154 -216 -285 -4 -105 30 -189 104 -256
64 -57 116 -76 212 -76 100 0 156 22 224 88 66 66 90 125 90 226 0 102 -24
160 -91 227 -84 83 -216 114 -323 76z"/>
</g>
</svg>
